<?xml version="1.0" standalone="no"?>
<!DOCTYPE svg PUBLIC "-//W3C//DTD SVG 20010904//EN"
 "http://www.w3.org/TR/2001/REC-SVG-20010904/DTD/svg10.dtd">
<svg version="1.0" xmlns="http://www.w3.org/2000/svg"
 width="460.000000pt" height="460.000000pt" viewBox="0 0 460.000000 460.000000"
 preserveAspectRatio="xMidYMid meet">
<metadata>
Created by potrace 1.14, written by Peter Selinger 2001-2017
</metadata>
<g transform="translate(0.000000,460.000000) scale(0.100000,-0.100000)"
fill="#000000" stroke="none">
<path d="M2779 4396 c-2 -2 -47 -6 -99 -10 -269 -18 -504 -59 -875 -153 -377
-95 -537 -154 -661 -246 -70 -52 -140 -121 -160 -159 -19 -36 -24 -118 -12
-169 12 -44 72 -117 114 -139 66 -32 163 -102 187 -133 54 -72 53 -54 55 -731
1 -346 3 -631 5 -632 1 -1 61 8 132 22 72 13 131 24 132 24 0 0 0 -124 0 -276
-1 -152 1 -278 5 -280 4 -3 63 31 130 75 68 44 168 109 223 144 55 35 152 98
215 139 64 41 126 80 138 87 12 6 22 15 22 20 0 7 -398 115 -457 124 -59 9
-71 6 706 157 140 27 258 47 263 44 4 -3 -11 -16 -35 -28 -24 -13 -81 -48
-128 -78 -46 -30 -137 -89 -203 -131 -68 -44 -113 -79 -105 -81 8 -3 122 -30
253 -61 293 -68 446 -105 467 -111 14 -4 15 26 13 280 l-2 284 46 6 c26 3 74
11 107 17 l60 10 -3 367 c-2 202 -5 368 -7 371 -4 4 -64 -10 -150 -35 l-50
-14 -1 -265 c0 -150 -4 -269 -10 -274 -5 -5 -142 -34 -304 -65 -279 -54 -643
-124 -1042 -202 -97 -19 -181 -34 -186 -34 -5 0 -10 224 -11 542 -2 500 -4
546 -20 583 -36 78 -144 188 -239 241 -100 57 -115 97 -61 159 18 20 51 47 75
61 49 29 260 121 350 153 129 45 444 119 694 161 79 14 298 38 415 46 55 3
111 8 125 10 40 6 309 5 370 -1 143 -15 233 -41 307 -90 76 -50 106 -95 111
-164 5 -63 -8 -97 -60 -163 -69 -88 -359 -253 -575 -328 -97 -34 -123 -47
-124 -61 0 -11 -1 -52 -1 -91 l-1 -73 31 3 c134 10 536 191 701 315 234 174
303 298 264 472 -28 122 -95 206 -214 266 -57 28 -172 65 -239 75 -19 3 -46 7
-60 10 -32 5 -615 15 -621 10z"/>
<path d="M1097 2637 l-107 -31 6 -785 c3 -432 7 -787 7 -787 2 -1 211 36 335
59 l72 14 0 -53 c0 -61 12 -54 -130 -78 -222 -39 -376 -67 -387 -71 -10 -3
-13 168 -13 836 0 796 -1 840 -17 835 -10 -3 -58 -15 -106 -27 l-89 -22 4
-918 c1 -504 5 -920 8 -923 3 -3 23 -1 45 4 22 5 54 11 70 13 63 10 395 69
493 87 57 11 110 20 118 20 13 0 15 -29 13 -205 -1 -113 1 -208 4 -211 3 -3
48 1 101 8 86 12 96 12 97 -2 1 -8 3 -44 4 -80 4 -114 3 -112 23 -106 9 3 33
8 52 11 19 3 46 8 60 10 14 3 36 8 50 10 14 3 77 14 140 26 63 11 124 22 135
24 71 13 133 25 155 29 14 2 122 22 240 45 118 22 226 42 240 44 41 8 193 36
225 42 17 3 73 14 125 23 l95 17 0 325 0 325 60 13 c92 20 90 18 93 117 l3 88
-57 -7 c-32 -4 -68 -9 -81 -12 -22 -6 -23 -3 -23 44 l0 50 65 13 c35 7 70 16
76 20 10 6 13 65 10 160 l-1 26 -67 -13 c-90 -18 -90 -18 -97 10 -3 13 -22 38
-42 55 -32 29 -40 31 -82 26 -59 -7 -91 -12 -167 -30 -33 -7 -78 -16 -100 -20
-22 -3 -263 -51 -535 -105 -272 -55 -508 -102 -525 -104 -112 -18 -185 -36
-208 -51 -37 -24 -63 -63 -71 -106 l-6 -37 -96 -12 c-53 -6 -97 -10 -99 -8 -2
2 -5 320 -7 706 -2 386 -3 702 -3 701 0 0 -48 -15 -108 -32z"/>
</g>
</svg>
